<svg width="28" height="28" viewBox="0 0 28 28" fill="none" xmlns="http://www.w3.org/2000/svg">
<mask id="mask0_79_214" style="mask-type:alpha" maskUnits="userSpaceOnUse" x="0" y="0" width="28" height="28">
<rect width="28" height="28" fill="#D9D9D9"/>
</mask>
<g mask="url(#mask0_79_214)">
<path d="M21.7187 11.4874H25.084V13.282H22.7507V19.3848C22.7507 20.0381 22.5252 20.5904 22.0743 21.0415C21.6236 21.4926 21.0716 21.7181 20.4185 21.7181C19.7655 21.7181 19.2132 21.4927 18.7615 21.0418C18.3098 20.5909 18.084 20.0389 18.084 19.386C18.084 18.733 18.3095 18.1807 18.7607 17.729C19.2118 17.2773 19.764 17.0515 20.4173 17.0515C20.6627 17.0515 20.8938 17.0884 21.1106 17.1623C21.3274 17.2364 21.5301 17.352 21.7187 17.5091V11.4874ZM4.08398 21.7181V19.7975C4.08398 19.3114 4.22418 18.8597 4.50457 18.4424C4.78515 18.0252 5.16247 17.7005 5.63653 17.4686C6.76722 16.9257 7.87633 16.526 8.96386 16.2695C10.0512 16.0131 11.1468 15.8848 12.2507 15.8848C12.9178 15.8848 13.5501 15.9256 14.1477 16.007C14.7452 16.0885 15.3326 16.2182 15.9099 16.3961C15.7753 16.5548 15.6534 16.7133 15.5442 16.8718C15.4351 17.0305 15.3386 17.1921 15.2548 17.3566C14.8092 17.2549 14.3234 17.1786 13.7977 17.1276C13.2719 17.0769 12.7562 17.0515 12.2507 17.0515C11.2172 17.0515 10.1956 17.1726 9.18582 17.4149C8.17626 17.6572 7.17866 18.0161 6.19303 18.4917C5.89825 18.6339 5.66754 18.8223 5.5009 19.057C5.33407 19.2919 5.25065 19.5387 5.25065 19.7975V20.5515H14.9947C15.0335 20.7607 15.0838 20.9601 15.1454 21.1497C15.2071 21.3391 15.2914 21.5286 15.3983 21.7181H4.08398ZM9.77382 12.2591C9.09171 11.577 8.75065 10.7513 8.75065 9.78198C8.75065 8.81287 9.09171 7.98726 9.77382 7.30515C10.4557 6.62304 11.2813 6.28198 12.2507 6.28198C13.22 6.28198 14.0456 6.62304 14.7275 7.30515C15.4096 7.98726 15.7507 8.81287 15.7507 9.78198C15.7507 10.7513 15.4096 11.577 14.7275 12.2591C14.0456 12.941 13.22 13.282 12.2507 13.282C11.2813 13.282 10.4557 12.941 9.77382 12.2591ZM13.8986 11.4299C14.3555 10.973 14.584 10.4236 14.584 9.78198C14.584 9.14032 14.3555 8.59101 13.8986 8.13407C13.4416 7.67712 12.8923 7.44865 12.2507 7.44865C11.609 7.44865 11.0597 7.67712 10.6027 8.13407C10.1458 8.59101 9.91732 9.14032 9.91732 9.78198C9.91732 10.4236 10.1458 10.973 10.6027 11.4299C11.0597 11.8868 11.609 12.1153 12.2507 12.1153C12.8923 12.1153 13.4416 11.8868 13.8986 11.4299Z" fill="#1A1A1A"/>
</g>
</svg>
