<svg width="28" height="28" viewBox="0 0 28 28" fill="none" xmlns="http://www.w3.org/2000/svg">
<mask id="mask0_79_179" style="mask-type:alpha" maskUnits="userSpaceOnUse" x="0" y="0" width="28" height="28">
<rect width="28" height="28" fill="#D9D9D9"/>
</mask>
<g mask="url(#mask0_79_179)">
<path d="M13.9993 24.6347C12.6892 23.5666 11.242 22.7237 9.65789 22.1059C8.07395 21.4882 6.40999 21.1195 4.66602 20.9999V10.096C6.45043 10.2008 8.14579 10.6267 9.7521 11.3738C11.3586 12.1208 12.7743 13.0456 13.9993 14.1481C15.2243 13.0456 16.6401 12.1208 18.2466 11.3738C19.8529 10.6267 21.5483 10.2008 23.3327 10.096V20.9999C21.5842 21.1195 19.9191 21.4882 18.3373 22.1059C16.7555 22.7237 15.3095 23.5666 13.9993 24.6347ZM13.9993 23.1717C15.2243 22.2728 16.5271 21.5474 17.9077 20.9956C19.2882 20.4435 20.7077 20.08 22.166 19.905V11.4064C20.642 11.6592 19.187 12.1509 17.8012 12.8814C16.4154 13.6121 15.1481 14.5519 13.9993 15.7006C12.8506 14.5519 11.5833 13.6121 10.1975 12.8814C8.81167 12.1509 7.35674 11.6592 5.83268 11.4064V19.905C7.29102 20.08 8.71046 20.4435 10.091 20.9956C11.4716 21.5474 12.7743 22.2728 13.9993 23.1717ZM11.3318 8.90481C10.5973 8.17039 10.2301 7.2812 10.2301 6.23723C10.2301 5.19306 10.5973 4.30377 11.3318 3.56935C12.0662 2.83513 12.9554 2.46802 13.9993 2.46802C15.0433 2.46802 15.9325 2.83513 16.6669 3.56935C17.4014 4.30377 17.7686 5.19306 17.7686 6.23723C17.7686 7.2812 17.4014 8.17039 16.6669 8.90481C15.9325 9.63923 15.0433 10.0064 13.9993 10.0064C12.9554 10.0064 12.0662 9.63923 11.3318 8.90481ZM15.838 8.0756C16.3473 7.56635 16.6019 6.95356 16.6019 6.23723C16.6019 5.5207 16.3473 4.90781 15.838 4.39856C15.3288 3.88931 14.7159 3.63468 13.9993 3.63468C13.2828 3.63468 12.6699 3.88931 12.1607 4.39856C11.6514 4.90781 11.3968 5.5207 11.3968 6.23723C11.3968 6.95356 11.6514 7.56635 12.1607 8.0756C12.6699 8.58505 13.2828 8.83977 13.9993 8.83977C14.7159 8.83977 15.3288 8.58505 15.838 8.0756Z" fill="#1A1A1A"/>
</g>
</svg>
