<svg width="28" height="28" viewBox="0 0 28 28" fill="none" xmlns="http://www.w3.org/2000/svg">
<mask id="mask0_79_208" style="mask-type:alpha" maskUnits="userSpaceOnUse" x="0" y="0" width="28" height="28">
<rect width="28" height="28" fill="#D9D9D9"/>
</mask>
<g mask="url(#mask0_79_208)">
<path d="M13.9993 20.1474C12.6711 20.1474 11.3841 20.3923 10.1383 20.8821C8.89227 21.3719 7.73377 22.1217 6.66277 23.1314V23.1985C6.72265 23.2434 6.78254 23.2772 6.84243 23.2997C6.90213 23.3221 6.9694 23.3333 7.04427 23.3333H20.9095C20.9844 23.3333 21.048 23.3221 21.1003 23.2997C21.1526 23.2772 21.2087 23.2434 21.2686 23.1985V23.1314C20.2275 22.1217 19.0915 21.3719 17.8604 20.8821C16.6296 20.3923 15.3426 20.1474 13.9993 20.1474ZM5.83268 22.3057C6.88268 21.2752 8.10282 20.4634 9.4931 19.8703C10.8834 19.2772 12.3855 18.9807 13.9993 18.9807C15.6132 18.9807 17.1153 19.2772 18.5056 19.8703C19.8959 20.4634 21.116 21.2752 22.166 22.3057V7.718C22.166 7.53834 22.0913 7.37374 21.9417 7.22421C21.7922 7.07468 21.6276 6.99992 21.4479 6.99992H6.55077C6.3711 6.99992 6.2065 7.07468 6.05697 7.22421C5.90745 7.37374 5.83268 7.53834 5.83268 7.718V22.3057ZM11.5158 14.7335C10.8382 14.056 10.4993 13.2282 10.4993 12.2499C10.4993 11.2717 10.8382 10.4438 11.5158 9.76638C12.1933 9.08874 13.0211 8.74992 13.9993 8.74992C14.9776 8.74992 15.8054 9.08874 16.4829 9.76638C17.1605 10.4438 17.4993 11.2717 17.4993 12.2499C17.4993 13.2282 17.1605 14.056 16.4829 14.7335C15.8054 15.4111 14.9776 15.7499 13.9993 15.7499C13.0211 15.7499 12.1933 15.4111 11.5158 14.7335ZM15.6429 13.8935C16.1028 13.4334 16.3327 12.8856 16.3327 12.2499C16.3327 11.6143 16.1028 11.0664 15.6429 10.6064C15.1828 10.1465 14.635 9.91659 13.9993 9.91659C13.3637 9.91659 12.8159 10.1465 12.3558 10.6064C11.8959 11.0664 11.666 11.6143 11.666 12.2499C11.666 12.8856 11.8959 13.4334 12.3558 13.8935C12.8159 14.3533 13.3637 14.5833 13.9993 14.5833C14.635 14.5833 15.1828 14.3533 15.6429 13.8935ZM6.55077 24.4999C6.01371 24.4999 5.56532 24.3201 5.2056 23.9603C4.84588 23.6006 4.66602 23.1522 4.66602 22.6152V7.718C4.66602 7.18095 4.84588 6.73256 5.2056 6.37284C5.56532 6.01311 6.01371 5.83325 6.55077 5.83325H8.6146V3.23071H9.8711V5.83325H18.2174V3.23071H19.3841V5.83325H21.4479C21.985 5.83325 22.4334 6.01311 22.7931 6.37284C23.1528 6.73256 23.3327 7.18095 23.3327 7.718V22.6152C23.3327 23.1522 23.1528 23.6006 22.7931 23.9603C22.4334 24.3201 21.985 24.4999 21.4479 24.4999H6.55077Z" fill="#1A1A1A"/>
</g>
</svg>
