<svg width="28" height="28" viewBox="0 0 28 28" fill="none" xmlns="http://www.w3.org/2000/svg">
<mask id="mask0_79_182" style="mask-type:alpha" maskUnits="userSpaceOnUse" x="0" y="0" width="28" height="28">
<rect width="28" height="28" fill="#D9D9D9"/>
</mask>
<g mask="url(#mask0_79_182)">
<path d="M14.0007 23.1989C13.57 23.1989 13.1991 23.0736 12.8879 22.8229C12.5768 22.5725 12.3943 22.2506 12.3405 21.8572H11.6673C11.3547 21.8572 11.082 21.7408 10.8495 21.5081C10.6169 21.2755 10.5007 21.0029 10.5007 20.6902V17.1768C9.29354 16.5083 8.35982 15.5967 7.69948 14.4419C7.03915 13.2873 6.70898 12.0705 6.70898 10.7917C6.70898 8.75292 7.41462 7.028 8.8259 5.61692C10.237 4.20564 11.9619 3.5 14.0007 3.5C16.0394 3.5 17.7643 4.20564 19.1754 5.61692C20.5867 7.028 21.2923 8.75292 21.2923 10.7917C21.2923 12.0795 20.9622 13.2984 20.3018 14.4486C19.6415 15.5989 18.7078 16.5083 17.5007 17.1768V20.6902C17.5007 21.0029 17.3844 21.2755 17.1518 21.5081C16.9193 21.7408 16.6467 21.8572 16.334 21.8572H15.6608C15.607 22.2506 15.4245 22.5725 15.1134 22.8229C14.8022 23.0736 14.4313 23.1989 14.0007 23.1989ZM11.6673 20.6902H16.334V19.5507H11.6673V20.6902ZM11.6673 18.6533H16.334V17.5H11.6673V18.6533ZM11.434 16.3333H13.4847V12.6898L11.0525 10.2576L11.784 9.52642L14.0007 11.7431L16.2173 9.52642L16.9488 10.2576L14.5166 12.6898V16.3333H16.5673C17.6173 15.8278 18.4729 15.084 19.134 14.1021C19.7951 13.1201 20.1257 12.0167 20.1257 10.7917C20.1257 9.08056 19.5326 7.63194 18.3465 6.44583C17.1604 5.25972 15.7118 4.66667 14.0007 4.66667C12.2895 4.66667 10.8409 5.25972 9.65482 6.44583C8.46871 7.63194 7.87565 9.08056 7.87565 10.7917C7.87565 12.0167 8.20621 13.1201 8.86732 14.1021C9.52843 15.084 10.384 15.8278 11.434 16.3333Z" fill="#1A1A1A"/>
</g>
</svg>
