<svg width="28" height="28" viewBox="0 0 28 28" fill="none" xmlns="http://www.w3.org/2000/svg">
<mask id="mask0_79_211" style="mask-type:alpha" maskUnits="userSpaceOnUse" x="0" y="0" width="28" height="28">
<rect width="28" height="28" fill="#D9D9D9"/>
</mask>
<g mask="url(#mask0_79_211)">
<path d="M5.38475 23.3334C4.84769 23.3334 4.39931 23.1536 4.03958 22.7938C3.67986 22.4341 3.5 21.9857 3.5 21.4487V10.0515C3.5 9.51444 3.67986 9.06605 4.03958 8.70633C4.39931 8.34661 4.84769 8.16675 5.38475 8.16675H10.5V6.55121C10.5 6.01434 10.6799 5.56605 11.0396 5.20633C11.3993 4.84661 11.8477 4.66675 12.3847 4.66675H15.6153C16.1523 4.66675 16.6007 4.84661 16.9604 5.20633C17.3201 5.56605 17.5 6.01434 17.5 6.55121V8.16675H22.6152C23.1523 8.16675 23.6007 8.34661 23.9604 8.70633C24.3201 9.06605 24.5 9.51444 24.5 10.0515V21.4487C24.5 21.9857 24.3201 22.4341 23.9604 22.7938C23.6007 23.1536 23.1523 23.3334 22.6152 23.3334H5.38475ZM11.6667 8.16675H16.3333V6.55121C16.3333 6.37173 16.2586 6.20723 16.109 6.05771C15.9595 5.90818 15.7949 5.83341 15.6153 5.83341H12.3847C12.2051 5.83341 12.0405 5.90818 11.891 6.05771C11.7414 6.20723 11.6667 6.37173 11.6667 6.55121V8.16675ZM23.3333 16.9167H16.3333V18.6667H11.6667V16.9167H4.66667V21.4487C4.66667 21.6283 4.74143 21.7929 4.89096 21.9425C5.04049 22.092 5.20508 22.1667 5.38475 22.1667H22.6152C22.7949 22.1667 22.9595 22.092 23.109 21.9425C23.2586 21.7929 23.3333 21.6283 23.3333 21.4487V16.9167ZM12.8333 17.5001H15.1667V15.1667H12.8333V17.5001ZM4.66667 15.7501H11.6667V14.0001H16.3333V15.7501H23.3333V10.0515C23.3333 9.87183 23.2586 9.70723 23.109 9.55771C22.9595 9.40818 22.7949 9.33341 22.6152 9.33341H5.38475C5.20508 9.33341 5.04049 9.40818 4.89096 9.55771C4.74143 9.70723 4.66667 9.87183 4.66667 10.0515V15.7501Z" fill="#1A1A1A"/>
</g>
</svg>
