<svg width="28" height="28" viewBox="0 0 28 28" fill="none" xmlns="http://www.w3.org/2000/svg">
<mask id="mask0_79_176" style="mask-type:alpha" maskUnits="userSpaceOnUse" x="0" y="0" width="28" height="28">
<rect width="28" height="28" fill="#D9D9D9"/>
</mask>
<g mask="url(#mask0_79_176)">
<path d="M8.75 4.66675C9.77608 4.66675 10.7386 4.92925 11.6375 5.45425C12.5364 5.97925 13.3239 6.74283 14 7.745C14.6761 6.74283 15.4636 5.97925 16.3625 5.45425C17.2614 4.92925 18.2239 4.66675 19.25 4.66675C20.7338 4.66675 21.9797 5.17084 22.9877 6.17904C23.9959 7.18704 24.5 8.43294 24.5 9.91675C24.5 10.0439 24.4951 10.1636 24.4854 10.2758C24.4757 10.388 24.4633 10.5077 24.4484 10.6348H23.2817C23.3012 10.5077 23.3147 10.388 23.3222 10.2758C23.3296 10.1636 23.3333 10.0439 23.3333 9.91675C23.3333 8.75008 22.9444 7.77786 22.1667 7.00008C21.3889 6.2223 20.4167 5.83341 19.25 5.83341C18.3211 5.83341 17.4641 6.09854 16.679 6.62879C15.8936 7.15904 15.1906 7.95733 14.5699 9.02366H13.4301C12.7944 7.94236 12.0877 7.14028 11.31 6.61741C10.5322 6.09475 9.67886 5.83341 8.75 5.83341C7.59831 5.83341 6.62978 6.2223 5.84442 7.00008C5.05925 7.77786 4.66667 8.75008 4.66667 9.91675C4.66667 10.0439 4.67036 10.1636 4.67775 10.2758C4.68533 10.388 4.69885 10.5077 4.71829 10.6348H3.55162C3.53665 10.5077 3.52431 10.388 3.51458 10.2758C3.50486 10.1636 3.5 10.0439 3.5 9.91675C3.5 8.43294 4.0041 7.18704 5.01229 6.17904C6.02029 5.17084 7.26619 4.66675 8.75 4.66675ZM7.70904 17.3653H9.33771C9.95993 17.9831 10.6555 18.6532 11.4243 19.3758C12.1931 20.0982 13.0517 20.8924 14 21.7584C14.9483 20.8924 15.8069 20.0982 16.5757 19.3758C17.3445 18.6532 18.0401 17.9831 18.6623 17.3653H20.2977C19.6037 18.0774 18.8147 18.8575 17.9308 19.7057C17.0468 20.5536 16.0313 21.4982 14.884 22.5392L14 23.3378L13.116 22.5392C11.9687 21.4982 10.9543 20.5536 10.0727 19.7057C9.1909 18.8575 8.40301 18.0774 7.70904 17.3653ZM12.8917 18.0834C13.0099 18.0834 13.109 18.0479 13.1889 17.977C13.269 17.9058 13.333 17.8134 13.3808 17.6999L15.3373 11.8237L16.8965 14.1707C16.9938 14.2963 17.1074 14.3965 17.2375 14.4711C17.3676 14.546 17.5149 14.5834 17.6794 14.5834H26.25V13.4167H17.7893L15.6424 10.195C15.5854 10.1096 15.5095 10.0457 15.4146 10.0031C15.3197 9.9605 15.2176 9.93921 15.1083 9.93921C14.9901 9.93921 14.8872 9.97469 14.7997 10.0457C14.7122 10.1168 14.6521 10.2092 14.6192 10.3227L12.6627 16.2144L11.0653 13.8295C10.968 13.7038 10.8544 13.6037 10.7243 13.529C10.5942 13.4542 10.4469 13.4167 10.2824 13.4167H1.75V14.5834H10.1658L12.3352 17.8276C12.3921 17.9278 12.4719 17.9954 12.5743 18.0306C12.6766 18.0658 12.7824 18.0834 12.8917 18.0834Z" fill="#1A1A1A"/>
</g>
</svg>
