<svg width="28" height="28" viewBox="0 0 28 28" fill="none" xmlns="http://www.w3.org/2000/svg">
<mask id="mask0_79_205" style="mask-type:alpha" maskUnits="userSpaceOnUse" x="0" y="0" width="28" height="28">
<rect width="28" height="28" fill="#D9D9D9"/>
</mask>
<g mask="url(#mask0_79_205)">
<path d="M4.68679 15.0098C4.66735 14.8451 4.65276 14.6768 4.64304 14.505C4.63332 14.3329 4.62846 14.1646 4.62846 14.0001C4.62846 12.7062 4.87453 11.4936 5.36667 10.3621C5.85881 9.23065 6.52886 8.242 7.37683 7.39617C8.225 6.55033 9.21744 5.88397 10.3542 5.39708C11.4909 4.91019 12.7062 4.66675 14 4.66675C15.3088 4.66675 16.5326 4.91019 17.6715 5.39708C18.8106 5.88397 19.803 6.55033 20.6488 7.39617C21.4947 8.242 22.1647 9.23065 22.659 10.3621C23.1535 11.4936 23.4007 12.7062 23.4007 14.0001C23.4007 14.1646 23.3958 14.3329 23.3861 14.505C23.3764 14.6768 23.3618 14.8451 23.3424 15.0098H22.169C22.1929 14.8451 22.2097 14.6768 22.2195 14.505C22.2292 14.3329 22.234 14.1646 22.234 14.0001C22.234 13.7308 22.2217 13.4616 22.197 13.1925C22.1723 12.9232 22.133 12.6613 22.0792 12.407H17.8074C17.8418 12.6613 17.8627 12.9232 17.8701 13.1925C17.8777 13.4616 17.8815 13.7308 17.8815 14.0001V14.505C17.8815 14.6768 17.8718 14.8451 17.8523 15.0098H16.7148V14.2042C16.7148 13.8811 16.71 13.573 16.7003 13.28C16.6905 12.9867 16.6685 12.6957 16.634 12.407H11.3727C11.3383 12.6957 11.3162 12.9867 11.3065 13.28C11.2967 13.573 11.2919 13.8811 11.2919 14.2042V15.0098H10.1544C10.1349 14.8451 10.1252 14.6768 10.1252 14.505V14.0001C10.1252 13.7308 10.129 13.4616 10.1366 13.1925C10.144 12.9232 10.1649 12.6613 10.1993 12.407H5.95C5.89614 12.6613 5.85686 12.9232 5.83217 13.1925C5.80747 13.4616 5.79513 13.7308 5.79513 14.0001C5.79513 14.1646 5.79999 14.3329 5.80971 14.505C5.81943 14.6768 5.83625 14.8451 5.86017 15.0098H4.68679ZM6.29096 11.2403H10.3273C10.5276 9.98558 10.823 8.93305 11.2134 8.08275C11.6039 7.23225 12.0922 6.53478 12.6785 5.99033C11.2067 6.1908 9.89722 6.76189 8.75 7.70358C7.60278 8.64508 6.7831 9.824 6.29096 11.2403ZM11.5366 11.2403H16.4634C16.2989 10.2697 16.0185 9.33711 15.6222 8.44267C15.2258 7.54822 14.685 6.75323 14 6.05771C13.315 6.76821 12.7768 7.56698 12.3856 8.45404C11.9946 9.3409 11.7116 10.2697 11.5366 11.2403ZM17.6794 11.2403H21.7382C21.2461 9.80903 20.4103 8.62632 19.231 7.69221C18.0515 6.75809 16.7184 6.1908 15.2317 5.99033C15.8479 6.55889 16.3598 7.27726 16.7673 8.14546C17.1751 9.01365 17.4791 10.0453 17.6794 11.2403ZM13.4167 23.3334V22.7501C13.4167 21.688 13.0428 20.7906 12.2949 20.0577C11.5471 19.3248 10.6421 18.9584 9.58008 18.9584H3.5V17.7917H9.58008C10.5284 17.7917 11.3948 18.0296 12.1794 18.5052C12.9638 18.9808 13.5707 19.6255 14 20.4392C14.4293 19.6255 15.0362 18.9808 15.8206 18.5052C16.6052 18.0296 17.4641 17.7917 18.3975 17.7917H24.5V18.9584H18.3975C17.3354 18.9584 16.4342 19.3248 15.694 20.0577C14.9536 20.7906 14.5833 21.688 14.5833 22.7501V23.3334H13.4167Z" fill="#1A1A1A"/>
</g>
</svg>
