<svg width="28" height="28" viewBox="0 0 28 28" fill="none" xmlns="http://www.w3.org/2000/svg">
<mask id="mask0_79_173" style="mask-type:alpha" maskUnits="userSpaceOnUse" x="0" y="0" width="28" height="28">
<rect width="28" height="28" fill="#D9D9D9"/>
</mask>
<g mask="url(#mask0_79_173)">
<path d="M13.9997 25.6666C13.2219 25.6666 12.5638 25.3936 12.0254 24.8476C11.487 24.3018 11.2178 23.64 11.2178 22.8622C11.2178 22.575 11.2569 22.3061 11.3353 22.0555C11.4139 21.805 11.5264 21.5706 11.6731 21.3523L6.64734 16.3423C6.42898 16.4844 6.18972 16.5969 5.92955 16.6798C5.66919 16.7628 5.4029 16.8043 5.13068 16.8043C4.3529 16.8043 3.69597 16.5314 3.15989 15.9856C2.62361 15.4396 2.35547 14.7777 2.35547 13.9999C2.35547 13.2221 2.62361 12.5603 3.15989 12.0143C3.69597 11.4684 4.3529 11.1955 5.13068 11.1955C5.81434 11.1955 6.40895 11.4105 6.91451 11.8404C7.42007 12.2705 7.73711 12.8034 7.86564 13.439H11.2872C11.4023 12.8886 11.6521 12.4223 12.0365 12.0402C12.4209 11.6579 12.8883 11.4092 13.4388 11.2941V7.87259C12.8032 7.74406 12.2741 7.42323 11.8516 6.91009C11.429 6.39714 11.2178 5.80632 11.2178 5.13763C11.2178 4.35985 11.4907 3.70175 12.0365 3.16334C12.5825 2.62492 13.2444 2.35571 14.0221 2.35571C14.7999 2.35571 15.4618 2.62492 16.0078 3.16334C16.5536 3.70175 16.8265 4.35985 16.8265 5.13763C16.8265 5.40985 16.7862 5.67614 16.7055 5.9365C16.6248 6.19667 16.5111 6.43594 16.3645 6.6543L21.3678 11.6575C21.5861 11.5109 21.8254 11.3973 22.0856 11.3166C22.3459 11.2359 22.6122 11.1955 22.8844 11.1955C23.6622 11.1955 24.3203 11.4684 24.8587 12.0143C25.3971 12.5603 25.6663 13.2221 25.6663 13.9999C25.6663 14.7777 25.3971 15.4396 24.8587 15.9856C24.3203 16.5314 23.6622 16.8043 22.8844 16.8043C22.2157 16.8043 21.6249 16.593 21.112 16.1705C20.5988 15.748 20.278 15.2189 20.1495 14.5833H16.7504C16.6351 15.1337 16.3827 15.6012 15.9932 15.9856C15.6036 16.37 15.1335 16.6198 14.583 16.7349V20.1497C15.2186 20.2782 15.7515 20.5953 16.1816 21.1008C16.6116 21.6064 16.8265 22.1935 16.8265 22.8622C16.8265 23.64 16.5498 24.3018 15.9964 24.8476C15.443 25.3936 14.7775 25.6666 13.9997 25.6666ZM13.4388 20.1497V16.7349C13.1711 16.6826 12.9191 16.5921 12.6828 16.4633C12.4464 16.3348 12.2321 16.1744 12.04 15.9821C11.8477 15.79 11.6872 15.5757 11.5587 15.3393C11.43 15.103 11.3395 14.851 11.2872 14.5833H7.86564C7.85066 14.6626 7.83083 14.743 7.80614 14.8245C7.78144 14.9059 7.75305 14.9874 7.72097 15.0689C7.68889 15.1505 7.65301 15.2273 7.61334 15.299C7.57368 15.3708 7.52915 15.441 7.47976 15.5099C7.59195 15.6221 7.89636 15.9227 8.39297 16.4117C8.88958 16.9009 9.42284 17.4316 9.99276 18.0036C10.5625 18.5757 11.0956 19.11 11.5923 19.6066L12.5055 20.5198C12.5743 20.4704 12.6458 20.4259 12.7198 20.3863C12.7937 20.3466 12.8715 20.3095 12.9532 20.2751C13.0346 20.2407 13.1161 20.2149 13.1976 20.1978C13.2791 20.1807 13.3595 20.1647 13.4388 20.1497ZM16.7504 13.4166H20.1495C20.1644 13.3328 20.1842 13.2501 20.2087 13.1687C20.2334 13.0872 20.2629 13.0057 20.2973 12.9243C20.3318 12.8426 20.3688 12.7648 20.4085 12.6909C20.4481 12.6168 20.4927 12.5476 20.5421 12.4833C20.4299 12.3711 20.1291 12.0667 19.6399 11.57C19.1509 11.0734 18.6214 10.5403 18.0515 9.97054C17.4818 9.40063 16.9486 8.87106 16.452 8.38184C15.9554 7.89281 15.651 7.5922 15.5388 7.48C15.4744 7.52939 15.4052 7.57392 15.3311 7.61359C15.2572 7.65325 15.1795 7.69029 15.0978 7.72471C15.0163 7.75913 14.9349 7.78859 14.8534 7.81309C14.7719 7.83778 14.6893 7.85761 14.6055 7.87259V11.2941C14.8687 11.342 15.1197 11.4313 15.3583 11.5622C15.5968 11.693 15.8073 11.8534 15.9897 12.0434C16.1723 12.2334 16.3327 12.444 16.471 12.6752C16.6094 12.9062 16.7026 13.1533 16.7504 13.4166ZM22.8844 15.6376C23.3346 15.6376 23.7163 15.481 24.0295 15.1678C24.343 14.8543 24.4997 14.465 24.4997 13.9999C24.4997 13.5498 24.343 13.1643 24.0295 12.8435C23.7163 12.5226 23.3346 12.3622 22.8844 12.3622C22.4191 12.3622 22.0298 12.5226 21.7166 12.8435C21.4032 13.1643 21.2464 13.5498 21.2464 13.9999C21.2464 14.465 21.4032 14.8543 21.7166 15.1678C22.0298 15.481 22.4191 15.6376 22.8844 15.6376ZM14.0221 15.6376C14.4723 15.6376 14.8578 15.481 15.1786 15.1678C15.4994 14.8543 15.6598 14.465 15.6598 13.9999C15.6598 13.5498 15.4994 13.1643 15.1786 12.8435C14.8578 12.5226 14.4723 12.3622 14.0221 12.3622C13.557 12.3622 13.1677 12.5226 12.8543 12.8435C12.5411 13.1643 12.3844 13.5498 12.3844 13.9999C12.3844 14.465 12.5411 14.8543 12.8543 15.1678C13.1677 15.481 13.557 15.6376 14.0221 15.6376ZM14.0221 24.4999C14.4723 24.4999 14.8578 24.3395 15.1786 24.0187C15.4994 23.6978 15.6598 23.3124 15.6598 22.8622C15.6598 22.4119 15.4994 22.0263 15.1786 21.7055C14.8578 21.3846 14.4723 21.2242 14.0221 21.2242C13.557 21.2242 13.1677 21.3846 12.8543 21.7055C12.5411 22.0263 12.3844 22.4119 12.3844 22.8622C12.3844 23.3124 12.5411 23.6978 12.8543 24.0187C13.1677 24.3395 13.557 24.4999 14.0221 24.4999ZM5.15984 15.6376C5.61018 15.6376 5.99576 15.481 6.31659 15.1678C6.63743 14.8543 6.79784 14.465 6.79784 13.9999C6.79784 13.5498 6.63743 13.1643 6.31659 12.8435C5.99576 12.5226 5.61018 12.3622 5.15984 12.3622C4.7097 12.3622 4.32422 12.5226 4.00339 12.8435C3.68255 13.1643 3.52214 13.5498 3.52214 13.9999C3.52214 14.465 3.68255 14.8543 4.00339 15.1678C4.32422 15.481 4.7097 15.6376 5.15984 15.6376ZM14.0221 6.77563C14.4723 6.77563 14.8578 6.61891 15.1786 6.30546C15.4994 5.99221 15.6598 5.60294 15.6598 5.13763C15.6598 4.68749 15.4994 4.302 15.1786 3.98117C14.8578 3.66034 14.4723 3.49992 14.0221 3.49992C13.557 3.49992 13.1677 3.66034 12.8543 3.98117C12.5411 4.302 12.3844 4.68749 12.3844 5.13763C12.3844 5.60294 12.5411 5.99221 12.8543 6.30546C13.1677 6.61891 13.557 6.77563 14.0221 6.77563Z" fill="#1A1A1A"/>
</g>
</svg>
